<svg xmlns="http://www.w3.org/2000/svg" viewBox="0 0 1080 1920" font-family="Segoe UI, Roboto, Arial, sans-serif" role="img" aria-label="Affiche promo Academie Compta FR - 3 mois gratuits">
  <defs>
    <linearGradient id="bg" x1="0" y1="0" x2="0" y2="1">
      <stop offset="0" stop-color="#16307a"/><stop offset="1" stop-color="#1F4E78"/>
    </linearGradient>
  </defs>
  <rect width="1080" height="1920" fill="url(#bg)"/>
  <rect x="0" y="0" width="1080" height="14" fill="#E8A13A"/>

  <!-- En-tete -->
  <text x="540" y="120" text-anchor="middle" font-size="56" font-weight="800" fill="#ffffff" letter-spacing="2">ACADÉMIE COMPTA FR</text>
  <text x="540" y="168" text-anchor="middle" font-size="27" fill="#cfe0f2">Comptabilité française externalisée · Madagascar</text>
  <line x1="340" y1="200" x2="740" y2="200" stroke="#E8A13A" stroke-width="3"/>

  <!-- Cible -->
  <text x="540" y="300" text-anchor="middle" font-size="42" font-weight="700" fill="#ffffff">Jeune diplômé(e) en comptabilité ?</text>

  <!-- Offre centrale -->
  <text x="540" y="500" text-anchor="middle" font-size="180" font-weight="800" fill="#E8A13A">3 MOIS</text>
  <text x="540" y="620" text-anchor="middle" font-size="96" font-weight="800" fill="#ffffff">100 % GRATUITS</text>
  <text x="540" y="690" text-anchor="middle" font-size="40" fill="#cfe0f2">Tous les modules · attestation à la clé</text>

  <!-- Ancrage prix -->
  <text x="540" y="780" text-anchor="middle" font-size="38" fill="#9fb3cf" text-decoration="line-through">Ailleurs : jusqu'à 100 000 Ar / module</text>
  <text x="540" y="828" text-anchor="middle" font-size="40" font-weight="800" fill="#E8A13A">→ Ici : 0 Ar pendant 3 mois !</text>

  <!-- Avantages -->
  <g font-size="34" fill="#ffffff">
    <text x="110" y="960">✓ 100 % pratique sur Pennylane (logiciel phare FR)</text>
    <text x="110" y="1030">✓ De la saisie au bilan des PME françaises</text>
    <text x="110" y="1100">✓ Cabinets français · payé en euros</text>
    <text x="110" y="1170">✓ Évaluations réussies → attestation de fin de formation</text>
  </g>

  <!-- CTA -->
  <rect x="120" y="1320" width="840" height="220" rx="28" fill="#E8A13A"/>
  <text x="540" y="1400" text-anchor="middle" font-size="44" font-weight="800" fill="#16307a">INSCRIPTION GRATUITE</text>
  <text x="540" y="1470" text-anchor="middle" font-size="50" font-weight="800" fill="#16307a">academie-compta-fr.mg</text>
  <text x="540" y="1512" text-anchor="middle" font-size="26" font-weight="700" fill="#3a2600">Places limitées</text>

  <!-- Bandeau bas : drapeaux -->
  <text x="540" y="1640" text-anchor="middle" font-size="30" fill="#cfe0f2">Rendez-vous sur le site : academie-compta-fr.mg</text>
  <text x="540" y="1690" text-anchor="middle" font-size="27" fill="#9fb3cf">Travaille pour la France, depuis Madagascar</text>
  <g transform="translate(470,1700)">
    <rect x="0" y="0" width="48" height="32" fill="#0055A4"/><rect x="16" y="0" width="16" height="32" fill="#ffffff"/><rect x="32" y="0" width="16" height="32" fill="#EF4135"/>
    <rect x="0" y="0" width="48" height="32" fill="none" stroke="#9aa9bd" stroke-width="0.5"/>
  </g>
  <text x="540" y="1722" text-anchor="middle" font-size="30" fill="#fff">⇄</text>
  <g transform="translate(562,1700)">
    <rect x="0" y="0" width="16" height="32" fill="#ffffff"/><rect x="16" y="0" width="32" height="16" fill="#FC3D32"/><rect x="16" y="16" width="32" height="16" fill="#007E3A"/>
    <rect x="0" y="0" width="48" height="32" fill="none" stroke="#cdbb9a" stroke-width="0.5"/>
  </g>

  <rect x="0" y="1906" width="1080" height="14" fill="#E8A13A"/>
</svg>
