<svg xmlns="http://www.w3.org/2000/svg" viewBox="0 0 900 520" font-family="Segoe UI, Arial, sans-serif">
  <rect width="900" height="520" fill="#f4f6f9"/>
  <!-- Barre du haut -->
  <rect width="900" height="56" fill="#1F4E78"/>
  <text x="22" y="35" fill="#fff" font-size="20" font-weight="700">Pennylane</text>
  <rect x="300" y="14" width="150" height="28" rx="14" fill="#E8A13A"/>
  <text x="375" y="33" fill="#1c2733" font-size="14" font-weight="700" text-anchor="middle">Comptabilité</text>
  <rect x="458" y="14" width="100" height="28" rx="14" fill="none" stroke="#9db4cc"/>
  <text x="508" y="33" fill="#dfe9f3" font-size="14" text-anchor="middle">Gestion</text>
  <text x="770" y="34" fill="#dfe9f3" font-size="14">Dossier client ▾</text>
  <!-- Sidebar -->
  <rect x="0" y="56" width="232" height="464" fill="#ffffff" stroke="#e2e6ec"/>
  <text x="22" y="86" fill="#8a97a6" font-size="12" font-weight="700">MENUS</text>
  <g font-size="15" fill="#27384a">
    <text x="24" y="120">📊 Tableau de bord</text>
    <rect x="8" y="138" width="216" height="34" rx="8" fill="#fff5e6" stroke="#E8A13A"/>
    <text x="24" y="160" fill="#1F4E78" font-weight="700">✍️ Saisie</text>
    <text x="24" y="200">🔍 Révision</text>
    <text x="24" y="240">🧾 Fiscalité</text>
    <text x="24" y="280">📑 États financiers</text>
    <text x="24" y="320">📁 Dossier du client</text>
  </g>
  <line x1="16" y1="430" x2="216" y2="430" stroke="#e2e6ec"/>
  <text x="24" y="458" font-size="13" fill="#8a97a6">⚙️ Paramètres</text>
  <text x="24" y="484" font-size="13" fill="#8a97a6">❔ Aide</text>
  <!-- Zone principale -->
  <text x="258" y="92" font-size="17" font-weight="700" fill="#1F4E78">Saisie → Transactions bancaires</text>
  <g>
    <rect x="258" y="110" width="610" height="40" rx="8" fill="#fff" stroke="#e2e6ec"/>
    <text x="272" y="135" font-size="13" fill="#27384a">12/03 · VIR REÇU MARTIN · +3 600 €</text>
    <rect x="760" y="118" width="96" height="24" rx="12" fill="#fbe7e7"/><text x="808" y="134" font-size="12" fill="#c0392b" text-anchor="middle">À traiter</text>
    <rect x="258" y="158" width="610" height="40" rx="8" fill="#fff" stroke="#e2e6ec"/>
    <text x="272" y="183" font-size="13" fill="#27384a">12/03 · PRLV ORANGE · −90 €</text>
    <rect x="772" y="166" width="84" height="24" rx="12" fill="#e4f6ea"/><text x="814" y="182" font-size="12" fill="#1f8a4c" text-anchor="middle">Traité</text>
    <rect x="258" y="206" width="610" height="40" rx="8" fill="#fff" stroke="#e2e6ec"/>
    <text x="272" y="231" font-size="13" fill="#27384a">10/03 · FRAIS BANCAIRES · −18 €</text>
    <rect x="772" y="214" width="84" height="24" rx="12" fill="#eaf1f9"/><text x="814" y="230" font-size="12" fill="#2E6CA4" text-anchor="middle">Justifié</text>
  </g>
  <!-- Annotations -->
  <text x="300" y="300" font-size="13" fill="#E8A13A" font-weight="700">↑ Bascule Comptabilité ↔ Gestion (haut à gauche)</text>
  <text x="258" y="330" font-size="13" fill="#1F4E78">Le collaborateur offshore travaille dans l'interface « Comptabilité ».</text>
  <text x="258" y="356" font-size="13" fill="#6b7785">Objectif mensuel : 0 transaction « À traiter ».</text>
  <text x="20" y="510" font-size="11" fill="#9db">Schéma pédagogique (reconstitution) — MG CONSULTING IT&amp;ACT</text>
</svg>
