<svg xmlns="http://www.w3.org/2000/svg" viewBox="0 0 600 500" font-family="Segoe UI, Arial, sans-serif">
  <defs><linearGradient id="g" x1="0" y1="0" x2="0" y2="1"><stop offset="0" stop-color="#0e7d63"/><stop offset="1" stop-color="#0b3f37"/></linearGradient></defs>
  <rect width="600" height="500" fill="#ffffff"/>
  <rect width="170" height="500" fill="url(#g)"/>
  <text x="20" y="40" fill="#fff" font-size="17" font-weight="700">● pennylane</text>
  <rect x="14" y="58" width="84" height="22" rx="5" fill="#fff"/><text x="56" y="74" fill="#1c2733" font-size="11" text-anchor="middle">Comptabilité</text>
  <text x="108" y="74" fill="#cfe6df" font-size="11">Gestion</text>
  <g font-size="13.5" fill="#dff1ea">
    <text x="20" y="128">✎ Saisie</text><text x="20" y="166">◷ Révision</text><text x="20" y="204">€ Fiscalité</text>
    <rect x="0" y="222" width="170" height="30" fill="rgba(255,255,255,.14)"/><text x="20" y="242" fill="#fff" font-weight="700">▭ États de synthèse</text>
    <text x="20" y="280">📁 Dossier du client</text>
  </g>
  <text x="195" y="40" font-size="18" font-weight="700" fill="#1c2733">États de synthèse</text>
  <rect x="195" y="54" width="280" height="30" rx="6" fill="#eef4fb" stroke="#cdd6df"/><text x="335" y="74" font-size="12" fill="#1F4E78" text-anchor="middle">⬇ Télécharger ▾</text>
  <g font-size="13" fill="#27384a">
    <text x="195" y="118" font-size="12" font-weight="700" fill="#8a97a6">ÉTATS FINANCIERS</text>
    <text x="205" y="144">Bilan</text><text x="205" y="168">Compte de résultat</text>
    <text x="195" y="204" font-size="12" font-weight="700" fill="#8a97a6">DOSSIER DE GESTION</text>
    <text x="205" y="230">Soldes intermédiaires de gestion (SIG)</text><text x="205" y="254">Analyse du bilan</text>
    <text x="205" y="278">Tableau de financement</text><text x="205" y="302">Capacité d'autofinancement (CAF)</text>
    <text x="195" y="338" font-size="12" font-weight="700" fill="#8a97a6">RESTITUTION</text>
    <text x="205" y="364">Plaquette</text>
    <text x="195" y="400" font-size="12" font-weight="700" fill="#8a97a6">RAPPORTS &amp; ANALYSES (Bêta)</text>
    <text x="205" y="426">Synthèse financière</text><text x="205" y="450">Rendez‑vous bilan</text>
  </g>
  <text x="195" y="488" font-size="10" fill="#9db">Reconstitution pédagogique — MG CONSULTING IT&amp;ACT</text>
</svg>
