<svg xmlns="http://www.w3.org/2000/svg" viewBox="0 0 600 500" font-family="Segoe UI, Arial, sans-serif">
  <defs><linearGradient id="g" x1="0" y1="0" x2="0" y2="1"><stop offset="0" stop-color="#0e7d63"/><stop offset="1" stop-color="#0b3f37"/></linearGradient></defs>
  <rect width="600" height="500" fill="#ffffff"/>
  <rect width="170" height="500" fill="url(#g)"/>
  <text x="20" y="40" fill="#fff" font-size="17" font-weight="700">● pennylane</text>
  <rect x="14" y="58" width="84" height="22" rx="5" fill="#fff"/><text x="56" y="74" fill="#1c2733" font-size="11" text-anchor="middle">Comptabilité</text>
  <text x="108" y="74" fill="#cfe6df" font-size="11">Gestion</text>
  <g font-size="13.5" fill="#dff1ea">
    <text x="20" y="128">✎ Saisie</text><text x="20" y="166">◷ Révision</text>
    <rect x="0" y="184" width="170" height="30" fill="rgba(255,255,255,.14)"/><text x="20" y="204" fill="#fff" font-weight="700">€ Fiscalité</text>
    <text x="20" y="242">▭ États de synthèse</text><text x="20" y="280">📁 Dossier du client</text>
  </g>
  <text x="195" y="40" font-size="18" font-weight="700" fill="#1c2733">Fiscalité</text>
  <g font-size="13" fill="#27384a">
    <text x="205" y="70">Vos déclarations</text><text x="205" y="94">Statut des télédéclarations</text>
    <text x="195" y="128" font-size="12" font-weight="700" fill="#8a97a6">DÉCLARATIONS DE TVA</text>
    <rect x="195" y="136" width="290" height="26" rx="6" fill="#eef4fb"/><text x="205" y="154" fill="#1F4E78">3519 – Remboursements de TVA ↗</text>
    <text x="205" y="180">3514 – Acomptes de TVA</text><text x="205" y="204">Cadrages de TVA</text>
    <text x="205" y="240" font-weight="700">Liasses fiscales</text>
    <text x="195" y="276" font-size="12" font-weight="700" fill="#8a97a6">IS</text>
    <text x="205" y="300">2571 – Acompte d'IS</text><text x="205" y="324">2572 – Solde d'IS</text>
    <text x="195" y="358" font-size="12" font-weight="700" fill="#8a97a6">CVAE</text>
    <text x="205" y="382">1329‑AC – Acompte · 1329‑DEF – Solde</text>
    <text x="195" y="416" font-size="12" font-weight="700" fill="#8a97a6">AUTRES</text>
    <text x="205" y="440">RCM 2777 (PFU) · 2561 (IFU) · DAS2 · DECLOYER</text>
  </g>
  <text x="195" y="488" font-size="10" fill="#9db">Reconstitution pédagogique — MG CONSULTING IT&amp;ACT</text>
</svg>
