<svg xmlns="http://www.w3.org/2000/svg" viewBox="0 0 600 460" font-family="Segoe UI, Arial, sans-serif">
  <defs><linearGradient id="g" x1="0" y1="0" x2="0" y2="1"><stop offset="0" stop-color="#0e7d63"/><stop offset="1" stop-color="#0b3f37"/></linearGradient></defs>
  <rect width="600" height="460" fill="#ffffff"/>
  <rect width="170" height="460" fill="url(#g)"/>
  <text x="20" y="40" fill="#fff" font-size="17" font-weight="700">● pennylane</text>
  <rect x="14" y="58" width="84" height="22" rx="5" fill="#fff"/><text x="56" y="74" fill="#1c2733" font-size="11" text-anchor="middle">Comptabilité</text>
  <text x="108" y="74" fill="#cfe6df" font-size="11">Gestion</text>
  <g font-size="13.5" fill="#dff1ea">
    <text x="20" y="128">✎ Saisie</text><text x="20" y="166">◷ Révision</text><text x="20" y="204">€ Fiscalité</text><text x="20" y="242">▭ États de synthèse</text>
    <rect x="0" y="260" width="170" height="30" fill="rgba(255,255,255,.14)"/><text x="20" y="280" fill="#fff" font-weight="700">📁 Dossier du client</text>
  </g>
  <text x="195" y="40" font-size="18" font-weight="700" fill="#1c2733">Dossier du client</text>
  <rect x="195" y="54" width="280" height="28" rx="6" fill="none" stroke="#cdd6df"/><text x="335" y="73" font-size="12" fill="#2E6CA4" text-anchor="middle">⏱ Enregistrer un temps</text>
  <rect x="195" y="88" width="280" height="28" rx="6" fill="none" stroke="#cdd6df"/><text x="335" y="107" font-size="12" fill="#2E6CA4" text-anchor="middle">✉ Écrire un e‑mail</text>
  <g font-size="13" fill="#27384a">
    <text x="205" y="150">Centre de collaboration</text>
    <text x="205" y="176">GED (gestion des documents)</text>
    <text x="205" y="202">Documents demandés</text>
    <text x="205" y="228">Plan comptable</text>
    <text x="195" y="266" font-size="12" font-weight="700" fill="#8a97a6">LISTE DES TIERS</text>
    <text x="205" y="292">Fournisseurs</text><text x="205" y="316">Clients</text>
  </g>
  <text x="195" y="360" font-size="12" fill="#6b7785">En bas de la barre : ComptAssistant · Recherche rapide ·</text>
  <text x="195" y="380" font-size="12" fill="#6b7785">Paramètres · Gestion d'abonnement · Aide et support</text>
  <text x="195" y="448" font-size="10" fill="#9db">Reconstitution pédagogique — MG CONSULTING IT&amp;ACT</text>
</svg>
